<?xml version="1.0" standalone="no"?>
<!DOCTYPE svg PUBLIC "-//W3C//DTD SVG 20010904//EN"
 "http://www.w3.org/TR/2001/REC-SVG-20010904/DTD/svg10.dtd">
<svg version="1.0" xmlns="http://www.w3.org/2000/svg"
 width="260.000000pt" height="260.000000pt" viewBox="0 0 260.000000 260.000000"
 preserveAspectRatio="xMidYMid meet">
<metadata>
Created by potrace 1.11, written by Peter Selinger 2001-2013
</metadata>
<g transform="translate(0.000000,260.000000) scale(0.100000,-0.100000)"
fill="#000000" stroke="none">
<path d="M1858 1795 c-2 -1 -28 -5 -58 -8 -158 -14 -254 -107 -254 -247 0
-137 66 -195 281 -249 180 -45 217 -63 243 -116 40 -83 7 -190 -73 -232 -66
-34 -245 -21 -366 27 -28 11 -53 20 -55 20 -2 0 -11 -20 -19 -45 l-16 -45 36
-15 c122 -51 273 -70 393 -50 97 16 183 82 211 162 8 21 14 74 14 118 0 66 -5
87 -24 122 -43 75 -101 105 -300 153 -139 33 -176 51 -201 97 -24 44 -13 114
24 152 61 63 223 76 365 28 l73 -24 15 35 c8 19 12 40 9 47 -7 20 -107 54
-178 61 -35 3 -75 7 -90 9 -15 1 -29 1 -30 0z"/>
<path d="M463 1756 c-5 -7 -8 -843 -4 -903 1 -9 18 -13 52 -13 l50 0 -2 375
c-1 206 1 378 4 382 4 3 7 0 7 -8 0 -15 278 -668 291 -683 10 -11 98 -12 107
0 5 5 19 34 31 64 13 30 32 73 41 95 161 374 220 514 220 525 0 7 2 11 5 8 3
-3 6 -175 5 -382 l0 -377 52 3 53 3 1 450 c0 248 -1 455 -3 461 -4 10 -128 13
-136 3 -2 -2 -30 -65 -62 -139 -32 -74 -71 -163 -86 -198 -16 -34 -29 -65 -29
-67 0 -3 -15 -38 -33 -77 -18 -40 -48 -110 -67 -155 -19 -46 -37 -83 -40 -83
-5 0 -61 126 -226 505 -47 110 -91 205 -96 210 -11 13 -128 14 -135 1z"/>
</g>
</svg>
